<?xml version="1.0" encoding="UTF-8"?>
<svg xmlns="http://www.w3.org/2000/svg"
     xmlns:xlink="http://www.w3.org/1999/xlink"
     xmlns:gadfly="http://www.gadflyjl.org/ns"
     version="1.2"
     width="180mm" height="100mm" viewBox="0 0 180 100"
     stroke="none"
     fill="#000000"
     stroke-width="0.3"
     font-size="3.88"
>
<g class="plotroot xscalable yscalable" id="fig-8c9d82b36f924b66a0ccdcb34347aaa4-element-1">
  <g font-size="3.88" font-family="'PT Sans','Helvetica Neue','Helvetica',sans-serif" fill="#564A55" stroke="#000000" stroke-opacity="0.000" id="fig-8c9d82b36f924b66a0ccdcb34347aaa4-element-2">
    <text x="82.79" y="88.39" text-anchor="middle" dy="0.6em">Total encounters required to find a Feebas</text>
  </g>
  <g class="guide xlabels" font-size="2.82" font-family="'PT Sans Caption','Helvetica Neue','Helvetica',sans-serif" fill="#6C606B" id="fig-8c9d82b36f924b66a0ccdcb34347aaa4-element-3">
    <text x="23.98" y="81.72" text-anchor="middle" dy="0.6em">0</text>
    <text x="70.69" y="81.72" text-anchor="middle" dy="0.6em">1×10³</text>
    <text x="117.4" y="81.72" text-anchor="middle" dy="0.6em">2×10³</text>
  </g>
  <g class="guide colorkey" id="fig-8c9d82b36f924b66a0ccdcb34347aaa4-element-4">
    <g fill="#4C404B" font-size="2.82" font-family="'PT Sans','Helvetica Neue','Helvetica',sans-serif" id="fig-8c9d82b36f924b66a0ccdcb34347aaa4-element-5">
      <text x="147.41" y="39.41" dy="0.35em">1</text>
      <text x="147.41" y="43.04" dy="0.35em">2</text>
      <text x="147.41" y="46.66" dy="0.35em">3</text>
      <text x="147.41" y="50.29" dy="0.35em">4</text>
      <text x="147.41" y="53.92" dy="0.35em">5</text>
      <text x="147.41" y="57.54" dy="0.35em">6</text>
    </g>
    <g stroke="#000000" stroke-opacity="0.000" id="fig-8c9d82b36f924b66a0ccdcb34347aaa4-element-6">
      <rect x="144.6" y="38.5" width="1.81" height="1.81" fill="#00BFFF"/>
      <rect x="144.6" y="42.13" width="1.81" height="1.81" fill="#D4CA3A"/>
      <rect x="144.6" y="45.76" width="1.81" height="1.81" fill="#FF5EA0"/>
      <rect x="144.6" y="49.38" width="1.81" height="1.81" fill="#00E5B2"/>
      <rect x="144.6" y="53.01" width="1.81" height="1.81" fill="#F6A6FF"/>
      <rect x="144.6" y="56.64" width="1.81" height="1.81" fill="#9E9E9E"/>
    </g>
    <g fill="#362A35" font-size="3.88" font-family="'PT Sans','Helvetica Neue','Helvetica',sans-serif" stroke="#000000" stroke-opacity="0.000" id="fig-8c9d82b36f924b66a0ccdcb34347aaa4-element-7">
      <text x="144.6" y="35.59">Encounters per tile</text>
    </g>
  </g>
  <g clip-path="url(#fig-8c9d82b36f924b66a0ccdcb34347aaa4-element-9)" id="fig-8c9d82b36f924b66a0ccdcb34347aaa4-element-8">
    <g pointer-events="visible" opacity="1" fill="#000000" fill-opacity="0.000" stroke="#000000" stroke-opacity="0.000" class="guide background" id="fig-8c9d82b36f924b66a0ccdcb34347aaa4-element-10">
      <rect x="21.98" y="12.61" width="121.62" height="68.1"/>
    </g>
    <g class="guide ygridlines xfixed" stroke-dasharray="0.5,0.5" stroke-width="0.2" stroke="#D0D0E0" id="fig-8c9d82b36f924b66a0ccdcb34347aaa4-element-11">
      <path fill="none" d="M21.98,78.72 L 143.6 78.72"/>
      <path fill="none" d="M21.98,68.03 L 143.6 68.03"/>
      <path fill="none" d="M21.98,57.35 L 143.6 57.35"/>
      <path fill="none" d="M21.98,46.66 L 143.6 46.66"/>
      <path fill="none" d="M21.98,35.98 L 143.6 35.98"/>
      <path fill="none" d="M21.98,25.3 L 143.6 25.3"/>
      <path fill="none" d="M21.98,14.61 L 143.6 14.61"/>
    </g>
    <g class="guide xgridlines yfixed" stroke-dasharray="0.5,0.5" stroke-width="0.2" stroke="#D0D0E0" id="fig-8c9d82b36f924b66a0ccdcb34347aaa4-element-12">
      <path fill="none" d="M23.98,12.61 L 23.98 80.72"/>
      <path fill="none" d="M70.69,12.61 L 70.69 80.72"/>
      <path fill="none" d="M117.4,12.61 L 117.4 80.72"/>
    </g>
    <g class="plotpanel" id="fig-8c9d82b36f924b66a0ccdcb34347aaa4-element-13">
      <g stroke-width="0.3" fill="#000000" fill-opacity="0.000" class="geometry" stroke-dasharray="none" stroke="#9E9E9E" id="fig-8c9d82b36f924b66a0ccdcb34347aaa4-element-14">
        <path fill="none" d="M18.6,78.71 L 19.02 78.71 19.43 78.7 19.84 78.68 20.25 78.63 20.66 78.51 21.07 78.28 21.48 77.84 21.89 77.09 22.31 75.93 22.72 74.28 23.13 72.16 23.54 69.66 23.95 66.98 24.36 64.37 24.77 62.08 25.19 60.27 25.6 59.01 26.01 58.28 26.42 57.97 26.83 57.98 27.24 58.17 27.65 58.47 28.06 58.8 28.48 59.14 28.89 59.48 29.3 59.8 29.71 60.12 30.12 60.44 30.53 60.76 30.94 61.07 31.36 61.38 31.77 61.69 32.18 61.98 32.59 62.26 33 62.52 33.41 62.76 33.82 62.99 34.23 63.21 34.65 63.42 35.06 63.64 35.47 63.86 35.88 64.1 36.29 64.36 36.7 64.63 37.11 64.92 37.53 65.21 37.94 65.5 38.35 65.77 38.76 66.02 39.17 66.25 39.58 66.47 39.99 66.69 40.41 66.9 40.82 67.12 41.23 67.35 41.64 67.59 42.05 67.82 42.46 68.05 42.87 68.27 43.28 68.48 43.7 68.67 44.11 68.85 44.52 69.02 44.93 69.18 45.34 69.35 45.75 69.53 46.16 69.71 46.58 69.89 46.99 70.07 47.4 70.25 47.81 70.41 48.22 70.57 48.63 70.72 49.04 70.86 49.45 71 49.87 71.14 50.28 71.28 50.69 71.43 51.1 71.59 51.51 71.75 51.92 71.91 52.33 72.07 52.75 72.22 53.16 72.37 53.57 72.5 53.98 72.63 54.39 72.75 54.8 72.87 55.21 72.99 55.62 73.1 56.04 73.22 56.45 73.34 56.86 73.45 57.27 73.56 57.68 73.67 58.09 73.77 58.5 73.88 58.92 74 59.33 74.12 59.74 74.23 60.15 74.35 60.56 74.45 60.97 74.55 61.38 74.63 61.79 74.71 62.21 74.79 62.62 74.87 63.03 74.97 63.44 75.07 63.85 75.17 64.26 75.28 64.67 75.39 65.09 75.49 65.5 75.58 65.91 75.66 66.32 75.72 66.73 75.78 67.14 75.83 67.55 75.87 67.96 75.92 68.38 75.97 68.79 76.03 69.2 76.1 69.61 76.17 70.02 76.24 70.43 76.31 70.84 76.37 71.26 76.43 71.67 76.48 72.08 76.53 72.49 76.59 72.9 76.64 73.31 76.7 73.72 76.76 74.14 76.82 74.55 76.87 74.96 76.92 75.37 76.97 75.78 77.01 76.19 77.05 76.6 77.1 77.01 77.14 77.43 77.19 77.84 77.23 78.25 77.27 78.66 77.31 79.07 77.35 79.48 77.39 79.89 77.43 80.31 77.47 80.72 77.52 81.13 77.55 81.54 77.59 81.95 77.62 82.36 77.65 82.77 77.68 83.18 77.71 83.6 77.73 84.01 77.76 84.42 77.78 84.83 77.8 85.24 77.83 85.65 77.85 86.06 77.87 86.48 77.9 86.89 77.92 87.3 77.95 87.71 77.98 88.12 78.02 88.53 78.05 88.94 78.08 89.35 78.11 89.77 78.14 90.18 78.16 90.59 78.19 91 78.21 91.41 78.23 91.82 78.24 92.23 78.26 92.65 78.27 93.06 78.28 93.47 78.29 93.88 78.3 94.29 78.32 94.7 78.33 95.11 78.34 95.52 78.36 95.94 78.37 96.35 78.39 96.76 78.41 97.17 78.42 97.58 78.43 97.99 78.45 98.4 78.46 98.82 78.47 99.23 78.48 99.64 78.48 100.05 78.49 100.46 78.49 100.87 78.49 101.28 78.5 101.69 78.51 102.11 78.52 102.52 78.53 102.93 78.54 103.34 78.55 103.75 78.56 104.16 78.57 104.57 78.57 104.99 78.57 105.4 78.58 105.81 78.58 106.22 78.58 106.63 78.58 107.04 78.58 107.45 78.59 107.87 78.59 108.28 78.6 108.69 78.6 109.1 78.61 109.51 78.61 109.92 78.62 110.33 78.62 110.74 78.63 111.16 78.63 111.57 78.63 111.98 78.64 112.39 78.64 112.8 78.65 113.21 78.65 113.62 78.65 114.04 78.66 114.45 78.66 114.86 78.67 115.27 78.67 115.68 78.67 116.09 78.67 116.5 78.68 116.91 78.68 117.33 78.68 117.74 78.69 118.15 78.69 118.56 78.69 118.97 78.69 119.38 78.69 119.79 78.7 120.21 78.7 120.62 78.7 121.03 78.7 121.44 78.7 121.85 78.7 122.26 78.7 122.67 78.71 123.08 78.71 123.5 78.71 123.91 78.71 124.32 78.71 124.73 78.71 125.14 78.71 125.55 78.71 125.96 78.71 126.38 78.71 126.79 78.71 127.2 78.71 127.61 78.71 128.02 78.71 128.43 78.71 128.84 78.71 129.25 78.71 129.67 78.71 130.08 78.71 130.49 78.71 130.9 78.71 131.31 78.71 131.72 78.71 132.13 78.71 132.55 78.71 132.96 78.71 133.37 78.71 133.78 78.71 134.19 78.71 134.6 78.71 135.01 78.71 135.42 78.71 135.84 78.71 136.25 78.71 136.66 78.71 137.07 78.71 137.48 78.71 137.89 78.71 138.3 78.71 138.72 78.71 139.13 78.71 139.54 78.71 139.95 78.71 140.36 78.71 140.77 78.71 141.18 78.71 141.6 78.71"/>
      </g>
      <g stroke-width="0.3" fill="#000000" fill-opacity="0.000" class="geometry" stroke-dasharray="none" stroke="#F6A6FF" id="fig-8c9d82b36f924b66a0ccdcb34347aaa4-element-15">
        <path fill="none" d="M19.44,78.71 L 19.78 78.71 20.12 78.7 20.46 78.68 20.8 78.63 21.14 78.51 21.48 78.28 21.81 77.84 22.15 77.08 22.49 75.9 22.83 74.2 23.17 71.95 23.51 69.22 23.84 66.2 24.18 63.15 24.52 60.33 24.86 57.97 25.2 56.19 25.54 55.03 25.87 54.41 26.21 54.2 26.55 54.28 26.89 54.53 27.23 54.87 27.57 55.25 27.9 55.63 28.24 56 28.58 56.35 28.92 56.69 29.26 57.02 29.6 57.35 29.93 57.69 30.27 58.04 30.61 58.4 30.95 58.77 31.29 59.14 31.63 59.5 31.97 59.86 32.3 60.2 32.64 60.54 32.98 60.87 33.32 61.18 33.66 61.48 34 61.76 34.33 62.03 34.67 62.29 35.01 62.55 35.35 62.8 35.69 63.05 36.03 63.29 36.36 63.54 36.7 63.78 37.04 64.03 37.38 64.29 37.72 64.56 38.06 64.83 38.39 65.09 38.73 65.34 39.07 65.58 39.41 65.8 39.75 66.01 40.09 66.22 40.42 66.43 40.76 66.65 41.1 66.87 41.44 67.1 41.78 67.33 42.12 67.55 42.46 67.77 42.79 67.99 43.13 68.21 43.47 68.42 43.81 68.63 44.15 68.84 44.49 69.05 44.82 69.25 45.16 69.43 45.5 69.61 45.84 69.78 46.18 69.95 46.52 70.11 46.85 70.28 47.19 70.44 47.53 70.61 47.87 70.78 48.21 70.95 48.55 71.11 48.88 71.27 49.22 71.42 49.56 71.55 49.9 71.68 50.24 71.8 50.58 71.92 50.91 72.03 51.25 72.15 51.59 72.28 51.93 72.42 52.27 72.58 52.61 72.74 52.95 72.91 53.28 73.07 53.62 73.22 53.96 73.35 54.3 73.46 54.64 73.56 54.98 73.66 55.31 73.76 55.65 73.86 55.99 73.98 56.33 74.09 56.67 74.21 57.01 74.31 57.34 74.41 57.68 74.49 58.02 74.57 58.36 74.65 58.7 74.74 59.04 74.84 59.37 74.94 59.71 75.04 60.05 75.13 60.39 75.22 60.73 75.29 61.07 75.35 61.4 75.41 61.74 75.47 62.08 75.53 62.42 75.6 62.76 75.68 63.1 75.76 63.44 75.85 63.77 75.94 64.11 76.03 64.45 76.12 64.79 76.21 65.13 76.3 65.47 76.39 65.8 76.46 66.14 76.54 66.48 76.6 66.82 76.66 67.16 76.71 67.5 76.75 67.83 76.79 68.17 76.83 68.51 76.86 68.85 76.9 69.19 76.93 69.53 76.96 69.86 77 70.2 77.04 70.54 77.07 70.88 77.11 71.22 77.15 71.56 77.2 71.89 77.24 72.23 77.28 72.57 77.32 72.91 77.37 73.25 77.42 73.59 77.48 73.93 77.54 74.26 77.59 74.6 77.64 74.94 77.68 75.28 77.72 75.62 77.75 75.96 77.78 76.29 77.8 76.63 77.83 76.97 77.85 77.31 77.87 77.65 77.9 77.99 77.93 78.32 77.96 78.66 77.99 79 78.02 79.34 78.04 79.68 78.06 80.02 78.08 80.35 78.09 80.69 78.1 81.03 78.11 81.37 78.13 81.71 78.14 82.05 78.16 82.38 78.18 82.72 78.2 83.06 78.22 83.4 78.25 83.74 78.27 84.08 78.28 84.42 78.3 84.75 78.32 85.09 78.33 85.43 78.35 85.77 78.36 86.11 78.37 86.45 78.39 86.78 78.4 87.12 78.41 87.46 78.42 87.8 78.43 88.14 78.44 88.48 78.45 88.81 78.46 89.15 78.47 89.49 78.48 89.83 78.49 90.17 78.49 90.51 78.5 90.84 78.51 91.18 78.52 91.52 78.52 91.86 78.53 92.2 78.53 92.54 78.54 92.87 78.54 93.21 78.55 93.55 78.56 93.89 78.56 94.23 78.57 94.57 78.58 94.91 78.59 95.24 78.59 95.58 78.6 95.92 78.61 96.26 78.62 96.6 78.63 96.94 78.64 97.27 78.64 97.61 78.65 97.95 78.65 98.29 78.65 98.63 78.65 98.97 78.65 99.3 78.65 99.64 78.65 99.98 78.64 100.32 78.64 100.66 78.64 101 78.65 101.33 78.65 101.67 78.65 102.01 78.66 102.35 78.67 102.69 78.67 103.03 78.68 103.36 78.68 103.7 78.69 104.04 78.69 104.38 78.69 104.72 78.69 105.06 78.69 105.4 78.7 105.73 78.7 106.07 78.7 106.41 78.7 106.75 78.7 107.09 78.7 107.43 78.7 107.76 78.7 108.1 78.7 108.44 78.7 108.78 78.7 109.12 78.7 109.46 78.7 109.79 78.7 110.13 78.7 110.47 78.7 110.81 78.71 111.15 78.71 111.49 78.71 111.82 78.71 112.16 78.71 112.5 78.71 112.84 78.71 113.18 78.71 113.52 78.71 113.85 78.71 114.19 78.71 114.53 78.71 114.87 78.71 115.21 78.71 115.55 78.71 115.89 78.71 116.22 78.71 116.56 78.71 116.9 78.71 117.24 78.71 117.58 78.71 117.92 78.71 118.25 78.71 118.59 78.71 118.93 78.71 119.27 78.71 119.61 78.71 119.95 78.71 120.28 78.71 120.62 78.71"/>
      </g>
      <g stroke-width="0.3" fill="#000000" fill-opacity="0.000" class="geometry" stroke-dasharray="none" stroke="#00E5B2" id="fig-8c9d82b36f924b66a0ccdcb34347aaa4-element-16">
        <path fill="none" d="M20.25,78.71 L 20.54 78.71 20.82 78.7 21.11 78.67 21.4 78.6 21.69 78.44 21.98 78.12 22.27 77.51 22.56 76.47 22.84 74.85 23.13 72.54 23.42 69.54 23.71 66 24 62.2 24.29 58.47 24.58 55.18 24.86 52.57 25.15 50.72 25.44 49.62 25.73 49.12 26.02 49.06 26.31 49.28 26.59 49.64 26.88 50.07 27.17 50.5 27.46 50.93 27.75 51.34 28.04 51.75 28.33 52.18 28.61 52.63 28.9 53.09 29.19 53.57 29.48 54.04 29.77 54.49 30.06 54.93 30.35 55.36 30.63 55.79 30.92 56.23 31.21 56.68 31.5 57.13 31.79 57.57 32.08 58.01 32.36 58.43 32.65 58.84 32.94 59.23 33.23 59.61 33.52 59.96 33.81 60.29 34.1 60.6 34.38 60.89 34.67 61.17 34.96 61.45 35.25 61.72 35.54 62 35.83 62.27 36.11 62.55 36.4 62.84 36.69 63.12 36.98 63.41 37.27 63.69 37.56 63.96 37.85 64.22 38.13 64.46 38.42 64.7 38.71 64.94 39 65.18 39.29 65.42 39.58 65.67 39.87 65.92 40.15 66.17 40.44 66.41 40.73 66.65 41.02 66.89 41.31 67.13 41.6 67.37 41.88 67.61 42.17 67.86 42.46 68.1 42.75 68.33 43.04 68.56 43.33 68.77 43.62 68.99 43.9 69.2 44.19 69.43 44.48 69.66 44.77 69.9 45.06 70.14 45.35 70.37 45.64 70.57 45.92 70.76 46.21 70.93 46.5 71.08 46.79 71.23 47.08 71.38 47.37 71.53 47.65 71.68 47.94 71.82 48.23 71.96 48.52 72.09 48.81 72.23 49.1 72.37 49.39 72.5 49.67 72.64 49.96 72.78 50.25 72.92 50.54 73.07 50.83 73.21 51.12 73.34 51.41 73.47 51.69 73.59 51.98 73.7 52.27 73.8 52.56 73.89 52.85 73.97 53.14 74.05 53.42 74.13 53.71 74.21 54 74.31 54.29 74.41 54.58 74.53 54.87 74.65 55.16 74.76 55.44 74.86 55.73 74.95 56.02 75.03 56.31 75.11 56.6 75.18 56.89 75.26 57.17 75.34 57.46 75.43 57.75 75.53 58.04 75.63 58.33 75.74 58.62 75.84 58.91 75.94 59.19 76.03 59.48 76.12 59.77 76.2 60.06 76.27 60.35 76.33 60.64 76.39 60.93 76.44 61.21 76.49 61.5 76.55 61.79 76.61 62.08 76.67 62.37 76.74 62.66 76.82 62.94 76.89 63.23 76.95 63.52 77.01 63.81 77.05 64.1 77.09 64.39 77.13 64.68 77.16 64.96 77.2 65.25 77.24 65.54 77.27 65.83 77.31 66.12 77.35 66.41 77.39 66.7 77.43 66.98 77.48 67.27 77.53 67.56 77.58 67.85 77.62 68.14 77.66 68.43 77.69 68.71 77.71 69 77.73 69.29 77.74 69.58 77.76 69.87 77.78 70.16 77.81 70.45 77.84 70.73 77.88 71.02 77.92 71.31 77.96 71.6 78 71.89 78.04 72.18 78.07 72.47 78.1 72.75 78.13 73.04 78.16 73.33 78.18 73.62 78.2 73.91 78.22 74.2 78.23 74.48 78.23 74.77 78.24 75.06 78.25 75.35 78.26 75.64 78.27 75.93 78.28 76.22 78.31 76.5 78.33 76.79 78.36 77.08 78.38 77.37 78.4 77.66 78.42 77.95 78.43 78.23 78.44 78.52 78.45 78.81 78.45 79.1 78.46 79.39 78.46 79.68 78.47 79.97 78.48 80.25 78.48 80.54 78.49 80.83 78.51 81.12 78.52 81.41 78.53 81.7 78.54 81.99 78.54 82.27 78.55 82.56 78.56 82.85 78.57 83.14 78.58 83.43 78.58 83.72 78.59 84 78.6 84.29 78.61 84.58 78.62 84.87 78.63 85.16 78.63 85.45 78.64 85.74 78.65 86.02 78.65 86.31 78.65 86.6 78.66 86.89 78.66 87.18 78.66 87.47 78.65 87.76 78.65 88.04 78.65 88.33 78.65 88.62 78.65 88.91 78.65 89.2 78.66 89.49 78.66 89.77 78.67 90.06 78.68 90.35 78.68 90.64 78.69 90.93 78.69 91.22 78.69 91.51 78.69 91.79 78.69 92.08 78.69 92.37 78.69 92.66 78.7 92.95 78.7 93.24 78.7 93.53 78.7 93.81 78.7 94.1 78.71 94.39 78.71 94.68 78.71 94.97 78.71 95.26 78.71 95.54 78.71 95.83 78.71 96.12 78.71 96.41 78.71 96.7 78.71 96.99 78.71 97.28 78.71 97.56 78.71 97.85 78.71 98.14 78.71 98.43 78.71 98.72 78.71 99.01 78.71 99.29 78.71 99.58 78.71 99.87 78.71 100.16 78.71 100.45 78.71 100.74 78.71 101.03 78.71 101.31 78.71 101.6 78.71 101.89 78.71 102.18 78.71 102.47 78.71 102.76 78.71 103.05 78.71 103.33 78.71 103.62 78.71 103.91 78.71 104.2 78.71 104.49 78.71 104.78 78.71 105.06 78.71 105.35 78.71 105.64 78.71 105.93 78.71 106.22 78.71 106.51 78.71"/>
      </g>
      <g stroke-width="0.3" fill="#000000" fill-opacity="0.000" class="geometry" stroke-dasharray="none" stroke="#FF5EA0" id="fig-8c9d82b36f924b66a0ccdcb34347aaa4-element-17">
        <path fill="none" d="M20.96,78.71 L 21.3 78.7 21.64 78.66 21.97 78.51 22.31 78.07 22.65 76.95 22.98 74.64 23.32 70.69 23.66 65.09 23.99 58.49 24.33 52.09 24.67 47 25 43.77 25.34 42.27 25.68 41.99 26.01 42.41 26.35 43.15 26.69 44 27.02 44.86 27.36 45.7 27.7 46.48 28.03 47.24 28.37 47.99 28.71 48.75 29.04 49.52 29.38 50.29 29.72 51.03 30.05 51.75 30.39 52.45 30.73 53.14 31.06 53.81 31.4 54.45 31.74 55.04 32.07 55.61 32.41 56.16 32.75 56.71 33.08 57.3 33.42 57.91 33.76 58.53 34.09 59.16 34.43 59.76 34.77 60.32 35.1 60.85 35.44 61.34 35.78 61.79 36.11 62.21 36.45 62.61 36.79 63.01 37.12 63.43 37.46 63.86 37.8 64.29 38.13 64.7 38.47 65.09 38.81 65.46 39.14 65.83 39.48 66.21 39.82 66.6 40.15 66.99 40.49 67.37 40.83 67.74 41.16 68.09 41.5 68.42 41.84 68.73 42.17 69.02 42.51 69.3 42.85 69.57 43.18 69.83 43.52 70.06 43.86 70.27 44.19 70.47 44.53 70.69 44.87 70.94 45.2 71.22 45.54 71.52 45.88 71.83 46.21 72.12 46.55 72.4 46.89 72.66 47.22 72.91 47.56 73.16 47.9 73.39 48.23 73.59 48.57 73.78 48.91 73.97 49.24 74.15 49.58 74.34 49.92 74.51 50.25 74.67 50.59 74.81 50.93 74.93 51.26 75.05 51.6 75.18 51.94 75.33 52.27 75.48 52.61 75.63 52.95 75.75 53.28 75.85 53.62 75.94 53.96 76.02 54.29 76.12 54.63 76.22 54.97 76.33 55.3 76.44 55.64 76.55 55.98 76.65 56.31 76.75 56.65 76.84 56.99 76.93 57.32 77.01 57.66 77.07 58 77.13 58.33 77.18 58.67 77.24 59.01 77.3 59.34 77.37 59.68 77.44 60.02 77.49 60.35 77.53 60.69 77.56 61.03 77.6 61.36 77.65 61.7 77.72 62.04 77.79 62.37 77.85 62.71 77.91 63.05 77.95 63.38 77.99 63.72 78.02 64.06 78.05 64.39 78.08 64.73 78.11 65.07 78.14 65.4 78.18 65.74 78.2 66.08 78.23 66.41 78.26 66.75 78.29 67.09 78.32 67.42 78.34 67.76 78.36 68.1 78.37 68.43 78.4 68.77 78.42 69.11 78.44 69.44 78.46 69.78 78.48 70.12 78.5 70.45 78.52 70.79 78.55 71.13 78.58 71.46 78.6 71.8 78.61 72.14 78.61 72.47 78.61 72.81 78.61 73.15 78.61 73.48 78.61 73.82 78.62 74.16 78.63 74.49 78.64 74.83 78.65 75.17 78.65 75.5 78.66 75.84 78.66 76.18 78.66 76.51 78.66 76.85 78.67 77.19 78.67 77.52 78.68 77.86 78.68 78.2 78.68 78.53 78.68 78.87 78.69 79.21 78.69 79.54 78.69 79.88 78.69 80.22 78.69 80.55 78.69 80.89 78.69 81.23 78.7 81.56 78.7 81.9 78.7 82.24 78.7 82.57 78.7 82.91 78.7 83.25 78.7 83.58 78.71 83.92 78.71 84.26 78.71 84.59 78.71 84.93 78.71 85.27 78.71 85.6 78.71 85.94 78.71 86.28 78.71 86.61 78.71 86.95 78.71 87.29 78.71 87.62 78.71 87.96 78.71 88.3 78.71 88.63 78.71 88.97 78.71 89.31 78.71 89.64 78.71 89.98 78.71 90.32 78.71 90.65 78.71 90.99 78.71 91.33 78.71 91.66 78.71 92 78.72 92.34 78.71 92.67 78.72 93.01 78.71 93.35 78.71 93.68 78.71 94.02 78.71 94.36 78.71 94.69 78.71 95.03 78.71 95.37 78.71 95.7 78.71 96.04 78.71 96.38 78.71 96.71 78.71 97.05 78.71 97.39 78.71 97.72 78.71 98.06 78.71 98.4 78.71 98.73 78.71 99.07 78.71 99.41 78.71 99.74 78.71 100.08 78.71 100.42 78.71 100.75 78.71 101.09 78.71 101.43 78.71 101.76 78.71 102.1 78.71 102.44 78.71 102.77 78.71 103.11 78.71 103.45 78.71 103.78 78.71 104.12 78.71 104.46 78.71 104.79 78.72 105.13 78.71 105.47 78.72 105.8 78.71 106.14 78.72 106.48 78.71 106.81 78.72 107.15 78.71 107.49 78.72 107.82 78.71 108.16 78.72 108.5 78.71 108.83 78.72 109.17 78.71 109.51 78.72 109.84 78.71 110.18 78.72 110.52 78.71 110.85 78.72 111.19 78.71 111.53 78.72 111.86 78.71 112.2 78.72 112.54 78.71 112.87 78.72 113.21 78.71 113.55 78.71 113.88 78.71 114.22 78.71 114.56 78.71 114.89 78.71 115.23 78.71 115.57 78.71 115.9 78.71 116.24 78.71 116.58 78.71 116.91 78.71 117.25 78.71 117.59 78.71 117.92 78.71 118.26 78.71 118.6 78.71 118.93 78.71 119.27 78.71 119.61 78.71 119.94 78.71 120.28 78.71 120.62 78.71 120.95 78.71 121.29 78.71 121.63 78.71"/>
      </g>
      <g stroke-width="0.3" fill="#000000" fill-opacity="0.000" class="geometry" stroke-dasharray="none" stroke="#D4CA3A" id="fig-8c9d82b36f924b66a0ccdcb34347aaa4-element-18">
        <path fill="none" d="M21.67,78.71 L 21.92 78.7 22.17 78.65 22.42 78.49 22.68 77.99 22.93 76.75 23.18 74.16 23.43 69.64 23.69 63 23.94 54.85 24.19 46.53 24.44 39.52 24.7 34.73 24.95 32.26 25.2 31.56 25.45 31.92 25.71 32.75 25.96 33.72 26.21 34.69 26.46 35.62 26.71 36.52 26.97 37.4 27.22 38.29 27.47 39.2 27.72 40.14 27.98 41.11 28.23 42.12 28.48 43.15 28.73 44.17 28.99 45.11 29.24 45.95 29.49 46.7 29.74 47.38 30 48.06 30.25 48.76 30.5 49.49 30.75 50.26 31.01 51.03 31.26 51.79 31.51 52.51 31.76 53.16 32.02 53.75 32.27 54.3 32.52 54.85 32.77 55.43 33.03 56.07 33.28 56.77 33.53 57.49 33.78 58.19 34.04 58.84 34.29 59.44 34.54 59.99 34.79 60.52 35.05 61.02 35.3 61.51 35.55 61.99 35.8 62.47 36.06 62.95 36.31 63.43 36.56 63.9 36.81 64.36 37.07 64.79 37.32 65.18 37.57 65.53 37.82 65.87 38.08 66.21 38.33 66.58 38.58 66.96 38.83 67.34 39.08 67.73 39.34 68.1 39.59 68.45 39.84 68.77 40.09 69.06 40.35 69.36 40.6 69.66 40.85 69.99 41.1 70.32 41.36 70.64 41.61 70.94 41.86 71.22 42.11 71.46 42.37 71.67 42.62 71.87 42.87 72.06 43.12 72.26 43.38 72.47 43.63 72.68 43.88 72.89 44.13 73.1 44.39 73.31 44.64 73.51 44.89 73.71 45.14 73.9 45.4 74.07 45.65 74.23 45.9 74.39 46.15 74.54 46.41 74.7 46.66 74.86 46.91 75.02 47.16 75.18 47.42 75.32 47.67 75.45 47.92 75.57 48.17 75.69 48.43 75.8 48.68 75.93 48.93 76.06 49.18 76.19 49.44 76.29 49.69 76.37 49.94 76.44 50.19 76.51 50.45 76.59 50.7 76.69 50.95 76.79 51.2 76.89 51.46 76.98 51.71 77.05 51.96 77.11 52.21 77.15 52.46 77.18 52.72 77.22 52.97 77.26 53.22 77.32 53.47 77.4 53.73 77.48 53.98 77.57 54.23 77.65 54.48 77.73 54.74 77.78 54.99 77.83 55.24 77.86 55.49 77.89 55.75 77.92 56 77.95 56.25 77.99 56.5 78.03 56.76 78.08 57.01 78.12 57.26 78.15 57.51 78.19 57.77 78.22 58.02 78.24 58.27 78.27 58.52 78.3 58.78 78.32 59.03 78.34 59.28 78.37 59.53 78.39 59.79 78.41 60.04 78.42 60.29 78.43 60.54 78.43 60.8 78.43 61.05 78.42 61.3 78.42 61.55 78.43 61.81 78.45 62.06 78.48 62.31 78.51 62.56 78.54 62.82 78.56 63.07 78.58 63.32 78.59 63.57 78.6 63.83 78.61 64.08 78.61 64.33 78.62 64.58 78.62 64.83 78.64 65.09 78.65 65.34 78.66 65.59 78.68 65.84 78.68 66.1 78.69 66.35 78.69 66.6 78.69 66.85 78.69 67.11 78.69 67.36 78.7 67.61 78.7 67.86 78.7 68.12 78.7 68.37 78.7 68.62 78.7 68.87 78.71 69.13 78.71 69.38 78.71 69.63 78.7 69.88 78.7 70.14 78.7 70.39 78.7 70.64 78.7 70.89 78.7 71.15 78.7 71.4 78.7 71.65 78.7 71.9 78.7 72.16 78.7 72.41 78.7 72.66 78.7 72.91 78.7 73.17 78.7 73.42 78.71 73.67 78.71 73.92 78.71 74.18 78.71 74.43 78.71 74.68 78.71 74.93 78.71 75.19 78.71 75.44 78.71 75.69 78.71 75.94 78.71 76.2 78.71 76.45 78.71 76.7 78.71 76.95 78.71 77.21 78.71 77.46 78.71 77.71 78.71 77.96 78.71 78.21 78.71 78.47 78.71 78.72 78.71 78.97 78.71 79.22 78.71 79.48 78.71 79.73 78.71 79.98 78.71 80.23 78.71 80.49 78.71 80.74 78.71 80.99 78.71 81.24 78.71 81.5 78.71 81.75 78.71 82 78.71 82.25 78.71 82.51 78.71 82.76 78.71 83.01 78.71 83.26 78.71 83.52 78.71 83.77 78.71 84.02 78.71 84.27 78.71 84.53 78.71 84.78 78.71 85.03 78.71 85.28 78.71 85.54 78.71 85.79 78.71 86.04 78.71 86.29 78.71 86.55 78.71 86.8 78.71 87.05 78.71 87.3 78.71 87.56 78.71 87.81 78.71 88.06 78.71 88.31 78.71 88.57 78.71 88.82 78.71 89.07 78.71 89.32 78.71 89.58 78.71 89.83 78.71 90.08 78.71 90.33 78.71 90.58 78.71 90.84 78.71 91.09 78.71 91.34 78.71 91.59 78.71 91.85 78.71 92.1 78.71 92.35 78.71 92.6 78.71 92.86 78.71 93.11 78.71 93.36 78.71 93.61 78.71 93.87 78.71 94.12 78.71 94.37 78.71 94.62 78.71 94.88 78.71 95.13 78.71 95.38 78.71 95.63 78.71 95.89 78.71 96.14 78.71 96.39 78.71 96.64 78.71 96.9 78.71 97.15 78.71"/>
      </g>
      <g stroke-width="0.3" fill="#000000" fill-opacity="0.000" class="geometry" stroke-dasharray="none" stroke="#00BFFF" id="fig-8c9d82b36f924b66a0ccdcb34347aaa4-element-19">
        <path fill="none" d="M22.24,78.71 L 22.45 78.69 22.65 78.61 22.86 78.3 23.07 77.37 23.27 75.02 23.48 70.22 23.68 62.23 23.89 51.42 24.09 39.51 24.3 28.93 24.5 21.44 24.71 17.43 24.91 16.19 25.12 16.62 25.33 17.85 25.53 19.38 25.74 20.94 25.94 22.47 26.15 23.91 26.35 25.27 26.56 26.57 26.76 27.82 26.97 29.05 27.17 30.24 27.38 31.38 27.59 32.46 27.79 33.51 28 34.58 28.2 35.74 28.41 37.02 28.61 38.37 28.82 39.66 29.02 40.78 29.23 41.74 29.43 42.62 29.64 43.52 29.85 44.45 30.05 45.39 30.26 46.32 30.46 47.27 30.67 48.28 30.87 49.35 31.08 50.44 31.28 51.47 31.49 52.36 31.69 53.13 31.9 53.81 32.11 54.49 32.31 55.2 32.52 55.95 32.72 56.71 32.93 57.45 33.13 58.16 33.34 58.84 33.54 59.47 33.75 60.05 33.96 60.58 34.16 61.08 34.37 61.59 34.57 62.14 34.78 62.72 34.98 63.3 35.19 63.83 35.39 64.3 35.6 64.72 35.8 65.09 36.01 65.43 36.22 65.77 36.42 66.14 36.63 66.56 36.83 67.03 37.04 67.51 37.24 67.95 37.45 68.31 37.65 68.61 37.86 68.91 38.06 69.26 38.27 69.66 38.48 70.08 38.68 70.48 38.89 70.82 39.09 71.11 39.3 71.39 39.5 71.67 39.71 71.95 39.91 72.22 40.12 72.47 40.32 72.71 40.53 72.93 40.74 73.15 40.94 73.35 41.15 73.54 41.35 73.74 41.56 73.95 41.76 74.18 41.97 74.41 42.17 74.62 42.38 74.81 42.59 74.98 42.79 75.14 43 75.29 43.2 75.42 43.41 75.55 43.61 75.66 43.82 75.76 44.02 75.87 44.23 76.02 44.43 76.24 44.64 76.52 44.85 76.82 45.05 77.1 45.26 77.32 45.46 77.46 45.67 77.54 45.87 77.61 46.08 77.67 46.28 77.74 46.49 77.8 46.69 77.86 46.9 77.91 47.11 77.93 47.31 77.95 47.52 77.96 47.72 77.96 47.93 77.96 48.13 77.96 48.34 77.96 48.54 77.96 48.75 77.98 48.95 78 49.16 78.04 49.37 78.07 49.57 78.11 49.78 78.14 49.98 78.17 50.19 78.19 50.39 78.19 50.6 78.2 50.8 78.21 51.01 78.23 51.21 78.25 51.42 78.26 51.63 78.27 51.83 78.27 52.04 78.27 52.24 78.29 52.45 78.3 52.65 78.32 52.86 78.32 53.06 78.31 53.27 78.31 53.48 78.3 53.68 78.3 53.89 78.32 54.09 78.34 54.3 78.36 54.5 78.38 54.71 78.4 54.91 78.41 55.12 78.42 55.32 78.42 55.53 78.43 55.74 78.44 55.94 78.46 56.15 78.48 56.35 78.51 56.56 78.53 56.76 78.55 56.97 78.56 57.17 78.56 57.38 78.55 57.58 78.55 57.79 78.54 58 78.55 58.2 78.56 58.41 78.57 58.61 78.59 58.82 78.6 59.02 78.61 59.23 78.61 59.43 78.6 59.64 78.6 59.84 78.59 60.05 78.58 60.26 78.58 60.46 78.59 60.67 78.6 60.87 78.6 61.08 78.61 61.28 78.61 61.49 78.61 61.69 78.61 61.9 78.62 62.1 78.62 62.31 78.63 62.52 78.63 62.72 78.63 62.93 78.64 63.13 78.65 63.34 78.65 63.54 78.66 63.75 78.66 63.95 78.66 64.16 78.66 64.37 78.67 64.57 78.68 64.78 78.68 64.98 78.69 65.19 78.69 65.39 78.69 65.6 78.7 65.8 78.7 66.01 78.7 66.21 78.71 66.42 78.71 66.63 78.71 66.83 78.71 67.04 78.7 67.24 78.7 67.45 78.7 67.65 78.69 67.86 78.69 68.06 78.7 68.27 78.7 68.47 78.7 68.68 78.71 68.89 78.71 69.09 78.71 69.3 78.71 69.5 78.71 69.71 78.71 69.91 78.71 70.12 78.71 70.32 78.71 70.53 78.71 70.73 78.71 70.94 78.71 71.15 78.71 71.35 78.71 71.56 78.71 71.76 78.71 71.97 78.71 72.17 78.71 72.38 78.71 72.58 78.71 72.79 78.71 73 78.71 73.2 78.71 73.41 78.71 73.61 78.71 73.82 78.7 74.02 78.7 74.23 78.7 74.43 78.69 74.64 78.69 74.84 78.69 75.05 78.7 75.26 78.7 75.46 78.71 75.67 78.71 75.87 78.71 76.08 78.71 76.28 78.71 76.49 78.71 76.69 78.71 76.9 78.71 77.1 78.71 77.31 78.71 77.52 78.71 77.72 78.71 77.93 78.71 78.13 78.71 78.34 78.71 78.54 78.71 78.75 78.71 78.95 78.71 79.16 78.71 79.36 78.71 79.57 78.71 79.78 78.71 79.98 78.71 80.19 78.71 80.39 78.71 80.6 78.71 80.8 78.71 81.01 78.71 81.21 78.71 81.42 78.71 81.62 78.71 81.83 78.71 82.04 78.71 82.24 78.71 82.45 78.71 82.65 78.71 82.86 78.71 83.06 78.71 83.27 78.71 83.47 78.71 83.68 78.71"/>
      </g>
    </g>
  </g>
  <g class="guide ylabels" font-size="2.82" font-family="'PT Sans Caption','Helvetica Neue','Helvetica',sans-serif" fill="#6C606B" id="fig-8c9d82b36f924b66a0ccdcb34347aaa4-element-20">
    <text x="20.98" y="78.72" text-anchor="end" dy="0.35em">0.000</text>
    <text x="20.98" y="68.03" text-anchor="end" dy="0.35em">0.001</text>
    <text x="20.98" y="57.35" text-anchor="end" dy="0.35em">0.002</text>
    <text x="20.98" y="46.66" text-anchor="end" dy="0.35em">0.003</text>
    <text x="20.98" y="35.98" text-anchor="end" dy="0.35em">0.004</text>
    <text x="20.98" y="25.3" text-anchor="end" dy="0.35em">0.005</text>
    <text x="20.98" y="14.61" text-anchor="end" dy="0.35em">0.006</text>
  </g>
  <g font-size="3.88" font-family="'PT Sans','Helvetica Neue','Helvetica',sans-serif" fill="#564A55" stroke="#000000" stroke-opacity="0.000" id="fig-8c9d82b36f924b66a0ccdcb34347aaa4-element-21">
    <text x="8.81" y="44.66" text-anchor="middle" dy="0.35em" transform="rotate(-90, 8.81, 46.66)">Probability Density</text>
  </g>
  <g font-size="3.88" font-family="'PT Sans','Helvetica Neue','Helvetica',sans-serif" fill="#564A55" stroke="#000000" stroke-opacity="0.000" id="fig-8c9d82b36f924b66a0ccdcb34347aaa4-element-22">
    <text x="82.79" y="10.61" text-anchor="middle">Gen III Feebas Fishing</text>
  </g>
</g>
<defs>
<clipPath id="fig-8c9d82b36f924b66a0ccdcb34347aaa4-element-9">
  <path d="M21.98,12.61 L 143.6 12.61 143.6 80.72 21.98 80.72" />
</clipPath
></defs>
</svg>
